<svg width="97" height="25" viewBox="0 0 97 25" fill="none" xmlns="http://www.w3.org/2000/svg">
<path fill-rule="evenodd" clip-rule="evenodd" d="M23.3367 7.66787C25.5399 9.3937 26.6256 11.7804 26.6652 14.5288C26.6914 16.3485 26.3718 18.137 25.5517 19.7085C25.1394 20.4142 24.6189 21.0714 23.9757 21.6616C21.8985 23.5672 19.1113 24.2429 16.2648 24.2838C13.4183 24.3247 10.6127 23.7294 8.48155 21.8843C7.54044 21.0695 6.84535 20.1118 6.35442 19.0647C5.30299 19.1278 4.22527 18.8219 3.33119 18.1222L3.32997 18.1212C1.12672 16.3954 0.0410695 14.0087 0.00148101 11.2603C-0.0247292 9.44067 0.295015 7.6518 1.11513 6.0803C1.52743 5.37461 2.04773 4.71768 2.69101 4.1275C4.76812 2.22187 7.55539 1.54627 10.4019 1.50536C13.2484 1.46445 16.054 2.05967 18.1851 3.90483C19.1262 4.71965 19.8213 5.67731 20.3122 6.72446C21.3637 6.66136 22.4414 6.96721 23.3355 7.66692L23.3367 7.66787ZM4.78211 11.1266C4.78211 12.3999 5.18022 13.2915 6.07362 14.0182C6.47454 14.3443 6.53808 14.939 6.2138 15.3442C5.88952 15.7495 5.3017 15.8127 4.89986 15.4856C3.56348 14.397 2.91305 12.972 2.91305 11.1266C2.91305 6.65256 5.43254 4.38398 10.4052 4.38398C15.3778 4.38398 17.8982 6.65256 17.8982 11.1266C17.8982 12.9776 17.2478 14.4036 15.9095 15.4866C15.7376 15.626 15.531 15.6939 15.3254 15.6939C15.0526 15.6939 14.7806 15.5733 14.5965 15.3414C14.2732 14.9352 14.3377 14.3414 14.7404 14.0163C15.632 13.2943 16.0301 12.4027 16.0301 11.1266C16.0301 8.72416 15.3619 6.26897 10.4061 6.26897C5.45029 6.26897 4.78211 8.72511 4.78211 11.1266ZM20.1719 10.3896C20.4962 9.98522 21.084 9.92019 21.4858 10.2482V10.2472C22.8222 11.3358 23.4727 12.7609 23.4727 14.6063C23.4727 19.0803 20.9522 21.3489 15.9796 21.3489C11.007 21.3489 8.48657 19.0803 8.48657 14.6063C8.48657 12.7552 9.137 11.3292 10.4752 10.2463C10.8771 9.92019 11.4658 9.98428 11.7892 10.3914C12.1125 10.7977 12.0481 11.3914 11.6453 11.7166C10.7537 12.4385 10.3556 13.3301 10.3556 14.6063C10.3556 17.0087 11.0238 19.4639 15.9796 19.4639C20.9354 19.4639 21.6036 17.0077 21.6036 14.6063C21.6036 13.333 21.2055 12.4414 20.3121 11.7147C19.9112 11.3886 19.8476 10.7948 20.1719 10.3896Z" fill="#2C46B1"/>
<path d="M41.0507 8.82667C41.9219 8.82667 42.6996 9.05067 43.3841 9.49867C44.081 9.93422 44.6285 10.5378 45.0267 11.3093C45.4374 12.0809 45.6427 12.9769 45.6427 13.9973C45.6427 15.0178 45.4374 15.92 45.0267 16.704C44.6285 17.4756 44.0872 18.0853 43.4027 18.5333C42.7307 18.9689 41.9716 19.1867 41.1254 19.1867C40.6276 19.1867 40.161 19.1058 39.7254 18.944C39.2899 18.7822 38.9041 18.5769 38.5681 18.328C38.2445 18.0791 37.9894 17.8302 37.8027 17.5813C37.6285 17.32 37.5414 17.1022 37.5414 16.928L38.1201 16.6853V18.048C38.1201 18.3716 38.0143 18.6453 37.8027 18.8693C37.5912 19.0809 37.3236 19.1867 37.0001 19.1867C36.6765 19.1867 36.409 19.0809 36.1974 18.8693C35.9859 18.6578 35.8801 18.384 35.8801 18.048V6.32533C35.8801 6.00178 35.9859 5.73422 36.1974 5.52266C36.409 5.29867 36.6765 5.18667 37.0001 5.18667C37.3236 5.18667 37.5912 5.29867 37.8027 5.52266C38.0143 5.73422 38.1201 6.00178 38.1201 6.32533V11.0667L37.8027 10.8987C37.8027 10.7369 37.8899 10.544 38.0641 10.32C38.2383 10.0836 38.4747 9.85333 38.7734 9.62933C39.0721 9.39289 39.4143 9.2 39.8001 9.05067C40.1983 8.90133 40.6152 8.82667 41.0507 8.82667ZM40.7707 10.88C40.2232 10.88 39.7441 11.0169 39.3334 11.2907C38.9227 11.5644 38.5992 11.9378 38.3627 12.4107C38.1387 12.8711 38.0267 13.4 38.0267 13.9973C38.0267 14.5822 38.1387 15.1173 38.3627 15.6027C38.5992 16.0756 38.9227 16.4489 39.3334 16.7227C39.7441 16.9964 40.2232 17.1333 40.7707 17.1333C41.3183 17.1333 41.7912 16.9964 42.1894 16.7227C42.6001 16.4489 42.9174 16.0756 43.1414 15.6027C43.3779 15.1173 43.4961 14.5822 43.4961 13.9973C43.4961 13.4 43.3779 12.8711 43.1414 12.4107C42.9174 11.9378 42.6001 11.5644 42.1894 11.2907C41.7912 11.0169 41.3183 10.88 40.7707 10.88ZM48.7214 19C48.3979 19 48.1303 18.8942 47.9188 18.6827C47.7072 18.4587 47.6014 18.1849 47.6014 17.8613V10.152C47.6014 9.82844 47.7072 9.56089 47.9188 9.34933C48.1303 9.12533 48.3979 9.01333 48.7214 9.01333C49.045 9.01333 49.3125 9.12533 49.5241 9.34933C49.7357 9.56089 49.8414 9.82844 49.8414 10.152V11.9067L49.7108 10.656C49.8477 10.3573 50.0219 10.096 50.2334 9.872C50.4574 9.63555 50.7063 9.44267 50.9801 9.29333C51.2539 9.13155 51.5463 9.01333 51.8574 8.93867C52.1685 8.864 52.4797 8.82667 52.7908 8.82667C53.1641 8.82667 53.4752 8.93244 53.7241 9.144C53.9854 9.35555 54.1161 9.60444 54.1161 9.89067C54.1161 10.3013 54.0103 10.6 53.7988 10.7867C53.5872 10.9609 53.357 11.048 53.1081 11.048C52.8717 11.048 52.6539 11.0044 52.4548 10.9173C52.2681 10.8302 52.0503 10.7867 51.8014 10.7867C51.5774 10.7867 51.3472 10.8427 51.1108 10.9547C50.8868 11.0542 50.6752 11.216 50.4761 11.44C50.2894 11.664 50.1339 11.944 50.0094 12.28C49.8974 12.6036 49.8414 12.9893 49.8414 13.4373V17.8613C49.8414 18.1849 49.7357 18.4587 49.5241 18.6827C49.3125 18.8942 49.045 19 48.7214 19ZM59.9799 19.1867C58.9221 19.1867 58.0013 18.9689 57.2173 18.5333C56.4457 18.0853 55.8484 17.4818 55.4253 16.7227C55.0146 15.9636 54.8093 15.1049 54.8093 14.1467C54.8093 13.0267 55.0333 12.0747 55.4813 11.2907C55.9417 10.4942 56.539 9.88444 57.2733 9.46133C58.0075 9.03822 58.7853 8.82667 59.6066 8.82667C60.2413 8.82667 60.8386 8.95733 61.3986 9.21867C61.971 9.48 62.475 9.84089 62.9106 10.3013C63.3461 10.7493 63.6884 11.272 63.9373 11.8693C64.1986 12.4667 64.3293 13.1013 64.3293 13.7733C64.3168 14.072 64.1986 14.3147 63.9746 14.5013C63.7506 14.688 63.4893 14.7813 63.1906 14.7813H56.0599L55.4999 12.9147H62.3506L61.9399 13.288V12.784C61.915 12.4231 61.7844 12.0996 61.5479 11.8133C61.3239 11.5271 61.0377 11.3031 60.6893 11.1413C60.3533 10.9671 59.9924 10.88 59.6066 10.88C59.2333 10.88 58.8848 10.9298 58.5613 11.0293C58.2377 11.1289 57.9577 11.2969 57.7213 11.5333C57.4848 11.7698 57.2981 12.0871 57.1613 12.4853C57.0244 12.8836 56.9559 13.3876 56.9559 13.9973C56.9559 14.6693 57.0928 15.2418 57.3666 15.7147C57.6528 16.1751 58.0137 16.5298 58.4493 16.7787C58.8973 17.0151 59.3701 17.1333 59.8679 17.1333C60.3284 17.1333 60.6955 17.096 60.9693 17.0213C61.243 16.9467 61.4608 16.8596 61.6226 16.76C61.7968 16.648 61.9524 16.5547 62.0893 16.48C62.3133 16.368 62.5248 16.312 62.7239 16.312C62.9977 16.312 63.2217 16.4053 63.3959 16.592C63.5826 16.7787 63.6759 16.9964 63.6759 17.2453C63.6759 17.5813 63.5017 17.8862 63.1533 18.16C62.8297 18.4338 62.3755 18.6764 61.7906 18.888C61.2057 19.0871 60.6021 19.1867 59.9799 19.1867ZM66.6432 9.01333C66.8796 9.01333 67.0974 9.07555 67.2965 9.2C67.4956 9.312 67.645 9.48622 67.7445 9.72267L70.4885 15.9947L70.0779 16.1813L72.8779 9.74133C73.0894 9.24355 73.4192 9.00711 73.8672 9.032C74.1783 9.032 74.4272 9.13155 74.6139 9.33067C74.813 9.51733 74.9125 9.75378 74.9125 10.04C74.9125 10.1271 74.8939 10.2204 74.8565 10.32C74.8316 10.4196 74.8005 10.5129 74.7632 10.6L71.2725 18.2907C71.0734 18.7387 70.7561 18.9751 70.3205 19C70.0841 19.0373 69.8539 18.9938 69.6299 18.8693C69.4183 18.7449 69.2565 18.552 69.1445 18.2907L65.6725 10.6C65.6476 10.5378 65.6165 10.4569 65.5792 10.3573C65.5543 10.2578 65.5419 10.1396 65.5419 10.0027C65.5419 9.77867 65.6414 9.56089 65.8405 9.34933C66.0396 9.12533 66.3072 9.01333 66.6432 9.01333ZM77.6663 18.9813C77.3054 18.9813 77.0254 18.888 76.8263 18.7013C76.6396 18.5022 76.5463 18.2222 76.5463 17.8613V17.544C76.5463 17.1831 76.6396 16.9093 76.8263 16.7227C77.0254 16.5236 77.3054 16.424 77.6663 16.424H77.909C78.2698 16.424 78.5436 16.5236 78.7303 16.7227C78.9294 16.9093 79.029 17.1831 79.029 17.544V17.8613C79.029 18.2222 78.9294 18.5022 78.7303 18.7013C78.5436 18.888 78.2698 18.9813 77.909 18.9813H77.6663ZM83.7521 17.8613C83.7521 18.1849 83.6401 18.4587 83.4161 18.6827C83.2045 18.8942 82.937 19 82.6134 19C82.3023 19 82.041 18.8942 81.8294 18.6827C81.6178 18.4587 81.5121 18.1849 81.5121 17.8613V6.32533C81.5121 6.00178 81.6178 5.73422 81.8294 5.52266C82.0534 5.29867 82.3272 5.18667 82.6507 5.18667C82.9743 5.18667 83.2356 5.29867 83.4347 5.52266C83.6463 5.73422 83.7521 6.00178 83.7521 6.32533V17.8613ZM93.4939 9.01333C93.8174 9.01333 94.085 9.12533 94.2965 9.34933C94.5081 9.56089 94.6139 9.82844 94.6139 10.152V18.0853C94.6139 19.2302 94.3961 20.1387 93.9605 20.8107C93.5374 21.4951 92.965 21.9867 92.2432 22.2853C91.5214 22.584 90.7125 22.7333 89.8165 22.7333C89.4183 22.7333 88.9952 22.7022 88.5472 22.64C88.0992 22.5778 87.7321 22.4844 87.4459 22.36C87.0725 22.1982 86.8112 21.9929 86.6619 21.744C86.525 21.5076 86.5001 21.2524 86.5872 20.9787C86.6992 20.6178 86.8797 20.3689 87.1285 20.232C87.3774 20.1076 87.6388 20.0951 87.9125 20.1947C88.1117 20.2569 88.373 20.3502 88.6965 20.4747C89.0201 20.6116 89.3934 20.68 89.8165 20.68C90.389 20.68 90.8619 20.5991 91.2352 20.4373C91.621 20.288 91.9072 20.0267 92.0939 19.6533C92.293 19.2924 92.3925 18.7947 92.3925 18.16V16.9093L92.7845 17.3573C92.573 17.768 92.3054 18.1102 91.9819 18.384C91.6708 18.6453 91.2974 18.8444 90.8619 18.9813C90.4263 19.1182 89.9285 19.1867 89.3685 19.1867C88.709 19.1867 88.1303 19.0373 87.6325 18.7387C87.1472 18.4276 86.7677 18.0044 86.4939 17.4693C86.2201 16.9218 86.0832 16.2996 86.0832 15.6027V10.152C86.0832 9.82844 86.189 9.56089 86.4005 9.34933C86.6121 9.12533 86.8797 9.01333 87.2032 9.01333C87.5268 9.01333 87.7943 9.12533 88.0059 9.34933C88.2174 9.56089 88.3232 9.82844 88.3232 10.152V14.9307C88.3232 15.7396 88.4974 16.312 88.8459 16.648C89.2068 16.9716 89.7045 17.1333 90.3392 17.1333C90.7748 17.1333 91.1419 17.0524 91.4405 16.8907C91.7392 16.7164 91.9694 16.4676 92.1312 16.144C92.293 15.808 92.3739 15.4036 92.3739 14.9307V10.152C92.3739 9.82844 92.4797 9.56089 92.6912 9.34933C92.9028 9.12533 93.1703 9.01333 93.4939 9.01333Z" fill="#2C46B1"/>
</svg>
